<svg width="112" height="32" fill="none" xmlns="http://www.w3.org/2000/svg"><path fill-rule="evenodd" clip-rule="evenodd" d="M73.065 10.456c-1.553-1.703-3.489-2.574-5.764-2.574-2.19 0-4.364 1.533-5.702 3.049l.006-2.834-4.087-.006-.045 23.244v.306l4.11.005.017-7.269c1.242 1.398 3.206 2.218 5.39 2.223 2.406 0 4.427-.86 6.013-2.55 1.597-1.704 2.41-4.108 2.416-6.863.005-2.817-.785-5.08-2.354-6.731Zm-6.746 1.255c1.394 0 2.574.527 3.505 1.562.96 1.001 1.451 2.313 1.446 3.903-.006 1.6-.48 3.038-1.462 4.084-.938 1.002-2.112 1.51-3.506 1.51-1.372 0-2.518-.503-3.5-1.521-.977-1.052-1.45-2.483-1.45-4.09.005-1.59.496-2.902 1.461-3.903.971-1.041 2.117-1.545 3.495-1.545h.01ZM77.502 11.559l-.017 9.809c-.006 2.115.576 3.626 1.716 4.486.711.537 1.615.809 2.687.809.824 0 2.117-.334 2.117-.334l-.367-3.575s-.943.305-1.4-.023c-.434-.311-.649-.979-.649-1.98l.017-9.192 3.805.005.005-3.41-3.804-.006.01-4.9-4.103-.005-.012 4.899-3.443-.006 3.438 3.423ZM43.817 2.983H23.58l-.005 4.062h8.09l-.035 18.961v.374l4.28.005-.017-19.335 7.925-.005V2.983ZM22.021 13.358l-6.09-6.12L8.788.07 5.712 3.142l4.5 4.52-9.874 9.86 13.278 13.327 3.037-3.032-4.539-4.56 9.907-9.9ZM9.36 19.886a.443.443 0 0 1-.27 0c-.091-.028-.165-.068-.328-.232l-1.79-1.799c-.158-.158-.203-.238-.231-.328a.446.446 0 0 1 0-.272c.028-.09.067-.164.231-.328l5.64-5.64c.158-.158.237-.203.327-.226a.443.443 0 0 1 .271 0c.09.028.164.068.328.232l1.79 1.799c.157.158.202.237.225.328a.446.446 0 0 1 0 .271c-.028.091-.068.165-.232.329l-5.64 5.64c-.152.158-.23.198-.32.226Z" fill="#fff"/><path fill-rule="evenodd" clip-rule="evenodd" d="M53.312 10.563c-1.676-1.736-3.957-2.692-6.294-2.625-2.365 0-4.448.832-6.193 2.478-1.761 1.658-2.659 3.96-2.664 6.84-.006 2.879.886 5.181 2.642 6.844 1.744 1.652 3.833 2.495 6.198 2.5.09.006.18.006.271.006 2.213 0 4.403-.95 6.018-2.602 1.18-1.216 2.59-3.366 2.596-6.715.006-3.349-1.394-5.504-2.574-6.726Zm-1.292 6.72c-.006 1.67-.497 3.05-1.468 4.102-.965 1.046-2.168 1.578-3.574 1.578-1.377-.006-2.568-.537-3.533-1.595-.943-1.03-1.423-2.416-1.423-4.107 0-1.691.486-3.072 1.434-4.101.965-1.047 2.156-1.579 3.54-1.579 1.4 0 2.602.538 3.567 1.596.971 1.052 1.462 2.432 1.457 4.107ZM90.08 14.456c0-1.047.547-3.35 3.573-3.35 1.072 0 1.682.363 2.196.793.497.413.745 1.43.745 2.274v.396l-4.996.78c-3.957.605-6.227 2.738-6.238 5.86-.005 1.619.582 3.005 1.7 4.023 1.1 1.001 2.607 1.533 4.386 1.538 2.24 0 3.923-.808 5.126-2.477.005.707.005 1.42.005 2.082h4.166l.028-11.993c.006-1.957-.632-3.852-1.89-4.893-1.243-1.024-2.868-1.55-5.222-1.556h-.034c-1.796 0-3.698.475-4.98 1.59C87.139 10.829 86.4 12.9 86.4 14.5l3.68-.045Zm1.89 8.717c-1.478-.006-2.438-.849-2.432-2.144.005-1.347.942-2.133 2.946-2.472l4.104-.696v.04c-.01 3.105-1.902 5.272-4.6 5.272h-.017ZM102.736 3.26l-.04 22.99v.102l3.687.01.039-22.994v-.102l-3.686-.006ZM108.545 24.954c0-.396.135-.735.417-1.018a1.382 1.382 0 0 1 1.011-.424c.395 0 .739.141 1.016.424.282.283.423.622.423 1.018 0 .402-.141.736-.423 1.013a1.379 1.379 0 0 1-1.016.418 1.36 1.36 0 0 1-1.011-.418 1.378 1.378 0 0 1-.417-1.013Zm.237 0a1.19 1.19 0 0 0 1.197 1.21c.333 0 .615-.118.846-.35.232-.238.35-.52.35-.86 0-.34-.118-.622-.35-.854a1.135 1.135 0 0 0-.846-.356c-.334 0-.616.118-.847.356a1.16 1.16 0 0 0-.35.854Zm1.535.787-.384-.685h-.259v.684h-.237v-1.572h.638c.316 0 .502.187.502.447 0 .22-.164.385-.384.43l.39.695h-.266Zm-.643-1.364v.481h.367c.203 0 .304-.08.304-.238 0-.164-.101-.243-.304-.243h-.367Z" fill="#fff"/></svg>